<svg xmlns="http://www.w3.org/2000/svg" data-name="Layer 1" viewBox="0 0 100 125" x="0px" y="0px"><path d="M39.71,68.31c2.61-.14,5.57-.31,8.61-.31s6,.17,8.61.31c5.77.32,10.75.59,12.53-1.1a3.34,3.34,0,0,0,.86-2.68c0-5-4.64-9.4-11.34-11.74a16.07,16.07,0,0,1-21.31,0C31,55.13,26.32,59.57,26.32,64.53a3.33,3.33,0,0,0,.87,2.68C29,68.9,34,68.63,39.71,68.31Z"/><ellipse cx="48.32" cy="40.73" rx="12.13" ry="12.1"/><path d="M48.32,90a40,40,0,1,0-40-40A40,40,0,0,0,48.32,90Zm0-76a36,36,0,1,1-36,36A36,36,0,0,1,48.32,14Z"/><text x="0" y="115" fill="#000000" font-size="5px" font-weight="bold" font-family="'Helvetica Neue', Helvetica, Arial-Unicode, Arial, Sans-serif">Created by Kosong Tujuh</text><text x="0" y="120" fill="#000000" font-size="5px" font-weight="bold" font-family="'Helvetica Neue', Helvetica, Arial-Unicode, Arial, Sans-serif">from the Noun Project</text></svg>