<svg xmlns="http://www.w3.org/2000/svg" xmlns:xlink="http://www.w3.org/1999/xlink" version="1.1" x="0px" y="0px" viewBox="0 0 70 87.5" enable-background="new 0 0 70 70" xml:space="preserve"><g><path d="M35,3.000001c-17.6400146,0-32,14.3599844-32,32c0,17.6499634,14.3599854,32,32,32c17.6399536,0,32-14.3500366,32-32   C67,17.3599854,52.6399536,3.000001,35,3.000001z M38.267395,24.5737305   c0.2451172-0.15625,6.0761719-3.7607422,9.9746094,0.1386719c0.390625,0.390625,0.390625,1.0239258,0,1.4140625   c-0.390625,0.390625-1.0234375,0.390625-1.4140625,0c-2.7646484-2.7646484-7.4482422,0.1108398-7.4951172,0.1396484   c-0.4677734,0.293457-1.0849609,0.1513672-1.3779297-0.3154297C37.6609497,25.4833984,37.8005981,24.8676758,38.267395,24.5737305z    M32.4998169,37.7944336c0.5527344,0,1,0.4477539,1,1c0,0.8271484,0.6728516,1.5,1.5,1.5s1.5-0.6728516,1.5-1.5   c0-0.5522461,0.4472656-1,1-1s1,0.4477539,1,1c0,1.9296875-1.5703125,3.5-3.5,3.5s-3.5-1.5703125-3.5-3.5   C31.4998169,38.2421875,31.9470825,37.7944336,32.4998169,37.7944336z M28.0388794,25.4194336   c0,2.4931641-1.4443359,4.4458008-3.2871094,4.4458008s-3.2871094-1.9526367-3.2871094-4.4458008   s1.4443359-4.4462891,3.2871094-4.4462891S28.0388794,22.9262695,28.0388794,25.4194336z M15.7888794,20.578125   c1.4423828-4.5966787,6.0253906-6.9907217,6.2197266-7.0903311c0.4902344-0.2524414,1.0917969-0.0585938,1.3447266,0.4321289   c0.2519531,0.4902344,0.0595703,1.0932617-0.4306641,1.3466797c-0.0400391,0.0205078-4.0371094,2.1254873-5.2255859,5.9101553   c-0.1641846,0.5244141-0.7235107,0.821167-1.2539063,0.6547852C15.9168091,21.6660156,15.6238403,21.1049805,15.7888794,20.578125z    M53.5730591,39.8925781l-1.6053467,0.868042c-0.336853,9.0794067-7.8076172,16.3668213-16.9678955,16.3668213   c-9.1580811,0-16.6273804-7.2839355-16.9675903-16.3602905l-1.6173706-0.8745728   c-0.4863281-0.2626953-0.6669922-0.8691406-0.4042969-1.3549805c0.2636719-0.4848633,0.8671875-0.668457,1.3554688-0.4038086   c-0.2455444-0.1328125,3.8728027,2.0941772,4.21875,2.28125c0.4863281,0.2626953,0.6669922,0.8691406,0.4042969,1.3549805   c-0.2635498,0.4852905-0.869873,0.6669922-1.3554688,0.4038086l-0.5205078-0.2814331   c0.8775024,7.440979,7.2133179,13.2350464,14.8867188,13.2350464c7.6757813,0,14.0134277-5.7976074,14.8877563-13.2419434   l-0.5332642,0.2883301c-0.4846802,0.2626343-1.0914307,0.0823364-1.3554688-0.4038086   c-0.2626953-0.4858398-0.0820313-1.0922852,0.4042969-1.3549805c-0.2285767,0.1235962,3.8834229-2.0999146,4.21875-2.28125   c0.4873047-0.2646484,1.0917969-0.0810547,1.3554688,0.4038086C54.2400513,39.0234375,54.0593872,39.6298828,53.5730591,39.8925781   z M54.2595825,21.8525391c-0.3502197,0.4195557-0.9793091,0.4828491-1.4082031,0.1254883   c-3.7382813-3.128418-9.5712891-2.8530273-9.6298828-2.8520508c-0.5605469,0.0395508-1.0224609-0.394043-1.0527344-0.9453125   c-0.0292969-0.5512695,0.3945313-1.0224609,0.9453125-1.0517578c0.2753906-0.0170898,6.6865234-0.3115234,11.0205078,3.3149414   C54.5584106,20.7983398,54.6140747,21.4291992,54.2595825,21.8525391z"/></g><text x="0" y="85" fill="#000000" font-size="5px" font-weight="bold" font-family="'Helvetica Neue', Helvetica, Arial-Unicode, Arial, Sans-serif">Created by Vectors Point</text><text x="0" y="90" fill="#000000" font-size="5px" font-weight="bold" font-family="'Helvetica Neue', Helvetica, Arial-Unicode, Arial, Sans-serif">from the Noun Project</text></svg>