<svg xmlns="http://www.w3.org/2000/svg" viewBox="0 0 36 45" x="0px" y="0px"><title>Монтажная область 41</title><path d="M33.11111,21.55534h-.88889V3.77756h.88889a.88889.88889,0,0,0,0-1.77778H2.88889a.88889.88889,0,0,0,0,1.77778h.88889V21.55534H2.88889a.88889.88889,0,0,0,0,1.77778h9.33349L8.2908,32.76888a.88875.88875,0,1,0,1.64062.684l1.99436-4.78646H24.07422l1.99436,4.78646a.88875.88875,0,1,0,1.64062-.684l-3.93158-9.43576h9.33349a.88889.88889,0,0,0,0-1.77778ZM30.44444,3.77756V12.737L22.954,7.49371a.88764.88764,0,0,0-1.138.09982l-6.01258,6.01259-3.50261-2.54731a.8888.8888,0,0,0-1.26259.2257l-5.48263,8.224V3.77756ZM12.00391,13.041l9.02864,6.5664a.8889.8889,0,1,0,1.046-1.4375l-4.81977-3.50531,5.28678-5.28679L30.44444,14.907v6.64833H6.32758ZM23.3335,26.88867H12.6665l1.4815-3.55555h7.704Z"/><path d="M13.56467,8.222a.88889.88889,0,1,0,0-1.77778h-.00911A.8889.8889,0,1,0,13.56467,8.222Z"/><text x="0" y="51" fill="#000000" font-size="5px" font-weight="bold" font-family="'Helvetica Neue', Helvetica, Arial-Unicode, Arial, Sans-serif">Created by Chintuza</text><text x="0" y="56" fill="#000000" font-size="5px" font-weight="bold" font-family="'Helvetica Neue', Helvetica, Arial-Unicode, Arial, Sans-serif">from the Noun Project</text></svg>